<svg xmlns="http://www.w3.org/2000/svg" viewBox="0 0 64 64" role="img" aria-label="English Orbit beaver favicon">
  <rect width="64" height="64" rx="16" fill="#fff"/>
  <g fill="none" stroke-linecap="round" stroke-linejoin="round">
    <path d="M13.8 28.8c-1.7-8.4 2.2-16.7 9.9-20.2 7.2-3.3 16.2-1.9 21.7 3.6 5.8 5.8 8 14.8 5.6 23.1-2.8 9.6-10.5 15.9-19.1 15.9-8.8 0-16.1-6.1-18.1-15.8-.4-2.2-.4-4.5 0-6.6Z" fill="#fff" stroke="#07142e" stroke-width="3.4"/>
    <path d="M18.6 16.1c-3.6-4.6-9.5-2.4-10.4 2.4-.7 4.1 2.1 7.9 6.6 8.2" fill="#fff" stroke="#07142e" stroke-width="3.4"/>
    <path d="M45.7 16c3.7-4.4 9.5-2.1 10.2 2.7.6 4.2-2.4 7.8-6.8 8" fill="#fff" stroke="#07142e" stroke-width="3.4"/>
    <path d="M12.3 18.9c.9-1.7 2.8-2.1 4.2-.9M51.8 18.9c-.9-1.7-2.8-2-4.2-.8" stroke="#b9a4ff" stroke-width="2.2"/>
    <path d="M28.4 9.1c1.1-2.2 3.1-3.2 5.2-3.2M34.2 9.6c1.2-1.9 3.2-2.4 5.3-1.8" stroke="#07142e" stroke-width="3.1"/>
    <path d="M17.8 48.1c-2.1-2.4-3.7-5.1-4.8-8.5M47.2 48.3c2-2.4 3.5-5.1 4.3-8.5" stroke="#b9a4ff" stroke-width="2.1"/>
    <path d="M21.1 22.7c-5.1 0-9.2 4.1-9.2 9.2s4.1 9.2 9.2 9.2 9.2-4.1 9.2-9.2-4.1-9.2-9.2-9.2Z" fill="#fff" stroke="#7655dc" stroke-width="3.8"/>
    <path d="M43 22.7c-5.1 0-9.2 4.1-9.2 9.2s4.1 9.2 9.2 9.2 9.2-4.1 9.2-9.2-4.1-9.2-9.2-9.2Z" fill="#fff" stroke="#7655dc" stroke-width="3.8"/>
    <path d="M30.2 31.8c1.3-.7 2.5-.7 3.8 0" stroke="#7655dc" stroke-width="3.2"/>
    <path d="M17.1 32.3c-1.2-.4-2.7-.5-4-.2M51 32.3c1.2-.4 2.7-.5 4-.2" stroke="#7655dc" stroke-width="3.2"/>
    <path d="M23.5 20.3c-1.1-.8-2.5-.9-3.8-.2M40.5 20.3c1.1-.8 2.5-.9 3.8-.2" stroke="#07142e" stroke-width="2.8"/>
    <path d="M23.3 32.1c0 2-1.1 3.6-2.5 3.6s-2.5-1.6-2.5-3.6 1.1-3.6 2.5-3.6 2.5 1.6 2.5 3.6Z" fill="#07142e" stroke="#07142e" stroke-width="1"/>
    <path d="M45.8 32.1c0 2-1.1 3.6-2.5 3.6s-2.5-1.6-2.5-3.6 1.1-3.6 2.5-3.6 2.5 1.6 2.5 3.6Z" fill="#07142e" stroke="#07142e" stroke-width="1"/>
    <path d="M21.6 29.7h.1M44.1 29.7h.1" stroke="#fff" stroke-width="1.8"/>
    <path d="M29.3 39.1c.9-1.2 4.5-1.2 5.4 0 .6.8.3 2.4-.8 3.2-.8.6-2.9.6-3.8 0-1.1-.8-1.4-2.4-.8-3.2Z" fill="#7655dc" stroke="#07142e" stroke-width="2.6"/>
    <path d="M32 42.8v5.4" stroke="#07142e" stroke-width="2.6"/>
    <path d="M27.6 48.3c1.3 1.6 3 2.3 4.4 2.3 1.5 0 3.2-.7 4.5-2.3" stroke="#07142e" stroke-width="2.4"/>
    <path d="M29.7 49.9v4.2c0 1.1.9 2 2 2h.6c1.1 0 2-.9 2-2v-4.2" fill="#fff" stroke="#07142e" stroke-width="2.4"/>
    <path d="M32 50.3v5.1" stroke="#07142e" stroke-width="1.4"/>
    <path d="M14.5 37.8 5.7 36.5M15.1 41.2 6.4 43.6M49.5 37.8l8.8-1.3M48.9 41.2l8.7 2.4" stroke="#07142e" stroke-width="2.1"/>
  </g>
</svg>
